<?xml version="1.0" standalone="no"?><!DOCTYPE svg PUBLIC "-//W3C//DTD SVG 1.1//EN" "http://www.w3.org/Graphics/SVG/1.1/DTD/svg11.dtd"><svg t="1636123059772" class="icon" viewBox="0 0 1024 1024" version="1.1" xmlns="http://www.w3.org/2000/svg" p-id="8078" xmlns:xlink="http://www.w3.org/1999/xlink" width="200" height="200"><defs><style type="text/css"></style></defs><path d="M518.545025 193.581693l-25.173172-43.599934a8.391057 8.391057 0 0 0 1.174748 15.103904L236.538369 65.685197a25.173172 25.173172 0 0 0-33.899872 19.584728L159.743412 358.38206a8.391057 8.391057 0 0 0-12.485893-8.575661l25.173172 43.599934-8.626007 4.984288 330.355928 572.186202 363.349566-209.776434L527.15425 188.630969l-8.626007 4.967506zM159.592373 391.107184a8.391057 8.391057 0 0 1-3.071127 11.478966l7.266656-4.195529-4.195529-7.266655z m406.9495-234.949606l338.746986 586.736294a41.955287 41.955287 0 0 1-15.355635 57.310922l-377.882878 218.167492a41.955287 41.955287 0 0 1-57.310921-15.355635L116.009221 416.297138a41.90494 41.90494 0 0 1-1.443262-39.236584 41.955287 41.955287 0 0 1-4.564735-26.49896L152.913091 77.449459a75.519516 75.519516 0 0 1 101.749962-58.737401l257.974667 99.383683a41.787466 41.787466 0 0 1 20.675566 17.201668c13.375345 1.006927 26.02906 8.391057 33.228587 20.876951z" fill="#0069F6" p-id="8079"></path><path d="M335.787795 327.251237a75.519516 75.519516 0 1 1 0-151.039032 75.519516 75.519516 0 0 1 0 151.039032z m0-50.346344a25.173172 25.173172 0 1 0 0-50.346344 25.173172 25.173172 0 0 0 0 50.346344z" fill="#5ED7BC" p-id="8080"></path></svg>