<?xml version="1.0" standalone="no"?><!DOCTYPE svg PUBLIC "-//W3C//DTD SVG 1.1//EN" "http://www.w3.org/Graphics/SVG/1.1/DTD/svg11.dtd"><svg t="1636123052724" class="icon" viewBox="0 0 1024 1024" version="1.1" xmlns="http://www.w3.org/2000/svg" p-id="7947" xmlns:xlink="http://www.w3.org/1999/xlink" width="200" height="200"><defs><style type="text/css"></style></defs><path d="M512 0C229.696 0 0 229.696 0 512s229.696 512 512 512 512-229.696 512-512S794.304 0 512 0z m0 960C264.96 960 64 759.04 64 512S264.96 64 512 64s448 200.96 448 448-200.96 448-448 448z m0-480c-52.032 0-96-29.312-96-64s43.968-64 96-64c29.44 0 56.704 9.216 74.752 25.216a31.952 31.952 0 0 0 45.184-2.688 31.944 31.944 0 0 0-2.688-45.184C606.848 309.44 576.768 296 544 290.688V256c0-17.664-14.336-32-32-32s-32 14.336-32 32v34.56C407.04 302.464 352 354.176 352 416c0 70.592 71.808 128 160 128 52.032 0 96 29.312 96 64s-43.968 64-96 64c-29.44 0-56.704-9.216-74.752-25.216a31.888 31.888 0 0 0-45.184 2.688 31.944 31.944 0 0 0 2.688 45.184c22.4 19.968 52.48 33.344 85.248 38.72V768c0 17.664 14.336 32 32 32s32-14.336 32-32v-34.56c72.96-11.904 128-63.616 128-125.44 0-70.592-71.808-128-160-128z" fill="#20A0FF" p-id="7948"></path></svg>