<?xml version="1.0" standalone="no"?><!DOCTYPE svg PUBLIC "-//W3C//DTD SVG 1.1//EN" "http://www.w3.org/Graphics/SVG/1.1/DTD/svg11.dtd"><svg t="1636123044946" class="icon" viewBox="0 0 1024 1024" version="1.1" xmlns="http://www.w3.org/2000/svg" p-id="7803" xmlns:xlink="http://www.w3.org/1999/xlink" width="200" height="200"><defs><style type="text/css"></style></defs><path d="M481.5 542.8m-416.9 0a416.9 416.9 0 1 0 833.8 0 416.9 416.9 0 1 0-833.8 0Z" fill="#3173E7" p-id="7804"></path><path d="M481.5 510.5m-416.9 0a416.9 416.9 0 1 0 833.8 0 416.9 416.9 0 1 0-833.8 0Z" fill="#E7F5FD" p-id="7805"></path><path d="M481.4 510.2V93.7c-230.2 0-416.9 186.6-416.9 416.9 0 115.1 46.7 219.3 122.1 294.8" fill="#B9DFF9" p-id="7806"></path><path d="M481.4 510.2V93.7C336 93.7 199.5 172.3 129 287.8" fill="#90BEF4" p-id="7807"></path><path d="M479.4 511m-209.4 0a209.4 209.4 0 1 0 418.8 0 209.4 209.4 0 1 0-418.8 0Z" fill="#F1F9FE" p-id="7808"></path><path d="M481.2 301.6h-2c-115.6 0-209.4 93.7-209.4 209.4 0 58.2 23.7 110.8 62.1 148.8l149.3-149.5V301.6z" fill="#D5ECFB" p-id="7809"></path><path d="M481.5 510.2l0.8-425.3c-94.2 0-182.6 28.1-254.4 75.9-35.9 24-68 52.9-95.1 85.7" fill="#5EADEF" p-id="7810"></path><path d="M481.5 510.3l0.7-446C743.7 64.3 958 248.8 958 510.8" fill="#3173E7" p-id="7811"></path><path d="M924.7 510.4c0 91.8-27.9 177.4-75.7 248.1L481.5 510.2" fill="#FCCA4C" p-id="7812"></path><path d="M923.7 540.7l-442.2-30.5 443.2 0.2c0 12.2-0.5 24.3-1.5 36.2" fill="#F99403" p-id="7813"></path><path d="M446.4 86c7.6-0.4 28.3-0.9 36-0.9l-0.8 425.3-6.8-131.3L446.4 86z" fill="#4790EB" p-id="7814"></path><path d="M483.6 64.3c261.2 0 432.5 185 432.9 446.4h42.9c0-261.8-214.2-446.4-475.8-446.4l-0.7 446 0.7-446z" fill="#6F9DEE" p-id="7815"></path><path d="M924.7 510.5s0-0.1 0 0l-443.2-0.2 0.1 0.1 443.1 0.1zM924.2 526.7c-3.9 60.4-29.2 111.7-59.8 160.5-13.2 18.6-28 36-43.6 52.3l28.3 19.1c47-69.5 74.7-153.5 75.6-243.4-0.1 3.8-0.2 7.6-0.5 11.5z" fill="#FEE5A6" p-id="7816"></path><path d="M244.1 171.1c70.4-46.9 141.5-84.8 233-86.3-92.1 1.1-178.3 29-248.7 75.9-35.9 24-68 52.9-95.1 85.7L482 510 149 256.7c27.1-32.8 59.2-61.7 95.1-85.6z" fill="#7EBDF2" p-id="7817"></path></svg>